<?xml version="1.0" encoding="UTF-8"?>
<!DOCTYPE svg PUBLIC "-//W3C//DTD SVG 1.1//EN" "http://www.w3.org/Graphics/SVG/1.1/DTD/svg11.dtd">
<svg xmlns="http://www.w3.org/2000/svg" version="1.1" width="988px" height="864px" style="shape-rendering:geometricPrecision; text-rendering:geometricPrecision; image-rendering:optimizeQuality; fill-rule:evenodd; clip-rule:evenodd" xmlns:xlink="http://www.w3.org/1999/xlink">
<g><path style="opacity:1" fill="#fefefe" d="M -0.5,-0.5 C 328.833,-0.5 658.167,-0.5 987.5,-0.5C 987.5,30.8333 987.5,62.1667 987.5,93.5C 985.833,93.5 984.167,93.5 982.5,93.5C 981.394,194.959 982.06,296.626 984.5,398.5C 983.802,535.331 983.135,672.165 982.5,809C 982.762,827.17 983.096,845.336 983.5,863.5C 655.5,863.5 327.5,863.5 -0.5,863.5C -0.5,575.5 -0.5,287.5 -0.5,-0.5 Z"/></g>
<g><path style="opacity:1" fill="#2c8f84" d="M 548.5,284.5 C 553.032,285.763 557.365,287.597 561.5,290C 562.451,290.718 562.617,291.551 562,292.5C 554.468,294.733 546.968,297.066 539.5,299.5C 540.737,297.903 542.404,296.737 544.5,296C 547.362,295.73 550.028,294.896 552.5,293.5C 552.023,292.522 551.357,291.689 550.5,291C 551.833,290.333 553.167,289.667 554.5,289C 552.474,287.406 550.474,285.906 548.5,284.5 Z"/></g>
<g><path style="opacity:1" fill="#16a294" d="M 548.5,284.5 C 550.474,285.906 552.474,287.406 554.5,289C 553.167,289.667 551.833,290.333 550.5,291C 551.357,291.689 552.023,292.522 552.5,293.5C 550.028,294.896 547.362,295.73 544.5,296C 542.404,296.737 540.737,297.903 539.5,299.5C 516.338,305.665 494.004,313.998 472.5,324.5C 472.586,323.504 472.252,322.671 471.5,322C 475.465,321.454 478.798,320.62 481.5,319.5C 481.119,317.058 481.786,316.391 483.5,317.5C 489.028,315.045 494.694,312.878 500.5,311C 499.263,310.768 498.263,310.268 497.5,309.5C 496.909,308.849 496.243,308.182 495.5,307.5C 496.991,306.756 498.491,306.09 500,305.5C 500.333,305.833 500.667,306.167 501,306.5C 501.374,305.584 501.874,304.75 502.5,304C 505.981,303.41 509.147,302.243 512,300.5C 513.682,304.131 515.849,304.298 518.5,301C 517.327,297.89 517.827,297.723 520,300.5C 521.074,299.382 522.24,298.382 523.5,297.5C 522.5,293.833 520.833,293.5 518.5,296.5C 516.51,295.537 516.177,294.204 517.5,292.5C 519.62,293.872 520.62,293.205 520.5,290.5C 514.067,291.231 507.4,291.898 500.5,292.5C 500.33,293.822 500.663,294.989 501.5,296C 500.069,296.465 498.903,297.299 498,298.5C 497.333,297.167 496.667,297.167 496,298.5C 495.585,296.709 494.585,295.376 493,294.5C 492.309,296.891 491.309,296.891 490,294.5C 486.516,295.778 483.182,297.445 480,299.5C 479.439,298.978 478.772,298.645 478,298.5C 476.072,299.56 474.405,300.893 473,302.5C 470.507,301.054 468.673,301.721 467.5,304.5C 465.765,303.943 464.098,303.61 462.5,303.5C 461.702,305.078 461.202,306.744 461,308.5C 459.705,307.159 459.205,305.826 459.5,304.5C 458.913,307.807 457.246,308.807 454.5,307.5C 451.466,307.723 449.133,309.056 447.5,311.5C 446.833,311.167 446.167,310.833 445.5,310.5C 443.925,311.456 442.258,312.123 440.5,312.5C 439.206,311.71 438.039,310.71 437,309.5C 433.905,310.395 430.738,310.395 427.5,309.5C 458.377,292.877 491.377,283.544 526.5,281.5C 531.833,281.667 537.167,281.833 542.5,282C 544.852,282.24 546.852,283.073 548.5,284.5 Z"/></g>
<g><path style="opacity:1" fill="#f7f6f3" d="M 987.5,93.5 C 987.5,350.167 987.5,606.833 987.5,863.5C 986.167,863.5 984.833,863.5 983.5,863.5C 983.096,845.336 982.762,827.17 982.5,809C 983.135,672.165 983.802,535.331 984.5,398.5C 982.06,296.626 981.394,194.959 982.5,93.5C 984.167,93.5 985.833,93.5 987.5,93.5 Z"/></g>
<g><path style="opacity:1" fill="#0aac99" d="M 497.5,309.5 C 494.903,310.595 492.403,310.262 490,308.5C 485.422,310.859 480.589,312.692 475.5,314C 476.654,314.914 476.487,315.747 475,316.5C 474.586,316.043 474.086,315.709 473.5,315.5C 471.5,316.833 469.5,318.167 467.5,319.5C 466.914,319.291 466.414,318.957 466,318.5C 462.178,322.327 457.678,324.994 452.5,326.5C 449.823,328.678 447.323,331.011 445,333.5C 444.667,333.167 444.333,332.833 444,332.5C 442.066,334.943 439.566,336.276 436.5,336.5C 436.66,338.199 436.494,339.866 436,341.5C 435.667,340.833 435.333,340.167 435,339.5C 429.905,341.82 425.072,345.32 420.5,350C 421.28,351.073 421.113,352.24 420,353.5C 418.951,352.483 417.784,352.316 416.5,353C 417.833,354.84 417.666,355.34 416,354.5C 411.666,354.667 410.833,356.167 413.5,359C 412.695,360.113 412.028,361.279 411.5,362.5C 410.883,362.389 410.383,362.056 410,361.5C 409.558,363.679 408.558,364.345 407,363.5C 404.933,365.413 402.766,367.08 400.5,368.5C 398.194,368.295 395.694,367.628 393,366.5C 390.154,368.293 389.988,370.127 392.5,372C 391.062,372.219 389.729,372.719 388.5,373.5C 389.326,374.451 389.492,375.451 389,376.5C 387.333,375.167 385.667,375.167 384,376.5C 382.556,379.105 382.723,381.271 384.5,383C 383.976,385.413 382.976,387.58 381.5,389.5C 381.709,390.086 382.043,390.586 382.5,391C 380.156,391.837 378.156,393.171 376.5,395C 377.167,395.333 377.833,395.667 378.5,396C 375.018,398.1 373.351,400.933 373.5,404.5C 372.143,401.473 372.476,398.64 374.5,396C 373.874,395.25 373.374,394.416 373,393.5C 369.758,396.445 368.592,399.945 369.5,404C 368.5,404.667 367.5,404.667 366.5,404C 366.833,403.667 367.167,403.333 367.5,403C 364.583,402.338 363.25,400.505 363.5,397.5C 361.409,397.318 359.409,397.652 357.5,398.5C 356.3,397.469 354.966,396.635 353.5,396C 354.071,394.795 354.738,393.628 355.5,392.5C 356.315,394.276 357.482,394.943 359,394.5C 359.605,392.519 360.605,392.185 362,393.5C 362.925,392.953 363.758,392.287 364.5,391.5C 363.282,391.891 362.448,391.224 362,389.5C 362.011,386.563 361.845,383.73 361.5,381C 363.384,380.784 365.051,380.117 366.5,379C 365.572,378.612 364.905,377.945 364.5,377C 366.228,372.991 367.895,372.824 369.5,376.5C 370.146,373.69 371.812,371.856 374.5,371C 372.698,369.173 370.532,368.006 368,367.5C 366.512,369.16 364.679,370.16 362.5,370.5C 365.567,367.411 368.567,364.077 371.5,360.5C 372.386,359.675 372.719,358.675 372.5,357.5C 371.448,357.649 370.448,357.483 369.5,357C 371.167,356.667 372.833,356.333 374.5,356C 380.757,351.573 386.091,346.406 390.5,340.5C 395.069,338.964 399.403,336.798 403.5,334C 410.632,329.079 417.799,324.245 425,319.5C 426.557,320.205 427.723,319.539 428.5,317.5C 432.566,315.93 436.566,314.264 440.5,312.5C 442.258,312.123 443.925,311.456 445.5,310.5C 446.167,310.833 446.833,311.167 447.5,311.5C 449.133,309.056 451.466,307.723 454.5,307.5C 457.246,308.807 458.913,307.807 459.5,304.5C 459.205,305.826 459.705,307.159 461,308.5C 461.202,306.744 461.702,305.078 462.5,303.5C 464.098,303.61 465.765,303.943 467.5,304.5C 468.673,301.721 470.507,301.054 473,302.5C 474.405,300.893 476.072,299.56 478,298.5C 478.772,298.645 479.439,298.978 480,299.5C 483.182,297.445 486.516,295.778 490,294.5C 491.309,296.891 492.309,296.891 493,294.5C 494.585,295.376 495.585,296.709 496,298.5C 496.667,297.167 497.333,297.167 498,298.5C 498.903,297.299 500.069,296.465 501.5,296C 500.663,294.989 500.33,293.822 500.5,292.5C 507.4,291.898 514.067,291.231 520.5,290.5C 520.62,293.205 519.62,293.872 517.5,292.5C 516.177,294.204 516.51,295.537 518.5,296.5C 520.833,293.5 522.5,293.833 523.5,297.5C 522.24,298.382 521.074,299.382 520,300.5C 517.827,297.723 517.327,297.89 518.5,301C 515.849,304.298 513.682,304.131 512,300.5C 509.147,302.243 505.981,303.41 502.5,304C 501.874,304.75 501.374,305.584 501,306.5C 500.667,306.167 500.333,305.833 500,305.5C 498.491,306.09 496.991,306.756 495.5,307.5C 496.243,308.182 496.909,308.849 497.5,309.5 Z"/></g>
<g><path style="opacity:1" fill="#17a18b" d="M 497.5,309.5 C 498.263,310.268 499.263,310.768 500.5,311C 494.694,312.878 489.028,315.045 483.5,317.5C 481.786,316.391 481.119,317.058 481.5,319.5C 478.798,320.62 475.465,321.454 471.5,322C 472.252,322.671 472.586,323.504 472.5,324.5C 462.21,328.976 452.544,334.476 443.5,341C 432.698,348.643 422.364,356.809 412.5,365.5C 411.596,364.791 411.263,363.791 411.5,362.5C 412.028,361.279 412.695,360.113 413.5,359C 410.833,356.167 411.666,354.667 416,354.5C 417.666,355.34 417.833,354.84 416.5,353C 417.784,352.316 418.951,352.483 420,353.5C 421.113,352.24 421.28,351.073 420.5,350C 425.072,345.32 429.905,341.82 435,339.5C 435.333,340.167 435.667,340.833 436,341.5C 436.494,339.866 436.66,338.199 436.5,336.5C 439.566,336.276 442.066,334.943 444,332.5C 444.333,332.833 444.667,333.167 445,333.5C 447.323,331.011 449.823,328.678 452.5,326.5C 457.678,324.994 462.178,322.327 466,318.5C 466.414,318.957 466.914,319.291 467.5,319.5C 469.5,318.167 471.5,316.833 473.5,315.5C 474.086,315.709 474.586,316.043 475,316.5C 476.487,315.747 476.654,314.914 475.5,314C 480.589,312.692 485.422,310.859 490,308.5C 492.403,310.262 494.903,310.595 497.5,309.5 Z"/></g>
<g><path style="opacity:1" fill="#33907f" d="M 654.5,383.5 C 655.665,375.842 656.665,368.176 657.5,360.5C 656.167,360.167 654.833,359.833 653.5,359.5C 647.89,360.689 642.223,361.356 636.5,361.5C 644.229,359.244 652.229,357.91 660.5,357.5C 659.123,366.398 657.123,375.065 654.5,383.5 Z"/></g>
<g><path style="opacity:1" fill="#0aab99" d="M 400.5,368.5 C 399.952,371.084 398.285,372.084 395.5,371.5C 395.657,372.873 395.49,374.207 395,375.5C 393.351,376.648 391.851,377.981 390.5,379.5C 390.994,382.55 390.327,385.55 388.5,388.5C 390.236,392.44 388.903,394.107 384.5,393.5C 383.947,395.939 383.947,398.273 384.5,400.5C 381.71,404.55 379.21,408.217 377,411.5C 375.123,419.73 374.29,428.063 374.5,436.5C 373.53,456.018 377.696,474.351 387,491.5C 391.094,496.102 395.594,500.102 400.5,503.5C 403.653,507.076 407.653,509.076 412.5,509.5C 412.5,510.5 412.5,511.5 412.5,512.5C 409.22,513.298 405.887,512.964 402.5,511.5C 401.07,509.614 399.403,507.947 397.5,506.5C 396.914,506.709 396.414,507.043 396,507.5C 393.742,505.57 391.242,504.07 388.5,503C 388.957,502.586 389.291,502.086 389.5,501.5C 388.311,500.571 386.978,500.238 385.5,500.5C 385.007,502.806 384.674,505.139 384.5,507.5C 385.5,507.5 386.5,507.5 387.5,507.5C 387.343,508.873 387.51,510.207 388,511.5C 389.422,511.594 390.922,511.928 392.5,512.5C 390.076,514.714 390.743,515.714 394.5,515.5C 394.238,514.022 394.571,512.689 395.5,511.5C 397.912,512.777 400.579,514.443 403.5,516.5C 401.077,516.143 398.743,516.977 396.5,519C 397.5,519.333 398.5,519.667 399.5,520C 397.893,521.049 397.227,522.549 397.5,524.5C 398.552,524.649 399.552,524.483 400.5,524C 400.167,523.667 399.833,523.333 399.5,523C 400.646,522.355 401.646,521.522 402.5,520.5C 404.046,521.684 405.713,522.684 407.5,523.5C 405.922,524.298 404.256,524.798 402.5,525C 402.996,526.996 403.996,528.663 405.5,530C 404.701,532.228 405.701,533.561 408.5,534C 407.874,534.75 407.374,535.584 407,536.5C 402.636,535.294 402.469,535.794 406.5,538C 403.83,539.724 404.163,540.891 407.5,541.5C 408.298,539.922 408.798,538.256 409,536.5C 410.131,537.604 410.965,537.271 411.5,535.5C 411.023,534.522 410.357,533.689 409.5,533C 409.833,532.833 410.167,532.667 410.5,532.5C 412.515,535.711 414.348,539.045 416,542.5C 416.318,540.939 417.151,539.772 418.5,539C 417.044,538.577 416.544,537.744 417,536.5C 419.069,537.264 421.236,537.764 423.5,538C 425.912,540.035 425.245,541.035 421.5,541C 424.728,541.888 428.062,543.388 431.5,545.5C 433.944,541.979 436.778,541.645 440,544.5C 443.325,541.524 444.659,537.857 444,533.5C 443.08,533.07 442.247,532.736 441.5,532.5C 442.727,531.41 443.56,530.076 444,528.5C 444.841,533.64 446.008,533.806 447.5,529C 446.834,526.162 445.501,523.662 443.5,521.5C 447.381,519.468 451.381,519.135 455.5,520.5C 456.82,518.73 458.32,518.397 460,519.5C 460.333,518.833 460.667,518.167 461,517.5C 463.363,520.857 465.697,520.523 468,516.5C 470.093,517.246 472.093,517.579 474,517.5C 477.174,515.75 476.841,514.417 473,513.5C 472.667,513.833 472.333,514.167 472,514.5C 470.801,511.793 468.967,511.126 466.5,512.5C 466.912,511.218 466.246,510.218 464.5,509.5C 470.601,509.85 476.601,510.85 482.5,512.5C 492.515,508.746 502.182,504.246 511.5,499C 518.433,492.528 526.1,487.028 534.5,482.5C 539.252,477.053 544.085,471.719 549,466.5C 553.979,463.619 557.812,459.619 560.5,454.5C 559.807,452.289 558.641,451.955 557,453.5C 555.72,453.387 554.887,452.72 554.5,451.5C 556.831,449.34 559.331,447.34 562,445.5C 564.383,442.246 563.883,441.246 560.5,442.5C 561.167,441.5 561.833,440.5 562.5,439.5C 563.043,439.44 563.376,439.107 563.5,438.5C 560.914,437.52 558.247,437.187 555.5,437.5C 558.358,436.834 561.358,436.167 564.5,435.5C 563.333,435.167 562.167,434.833 561,434.5C 554.305,435.893 547.638,437.227 541,438.5C 537.035,437.813 533.368,438.813 530,441.5C 528.089,441.745 526.089,441.745 524,441.5C 520.833,443.167 517.667,444.833 514.5,446.5C 513.833,446.167 513.167,445.833 512.5,445.5C 513.506,444.604 513.506,443.938 512.5,443.5C 509.117,447.562 506.117,447.729 503.5,444C 503.833,443.667 504.167,443.333 504.5,443C 502.392,442.64 500.392,441.973 498.5,441C 500.376,439.625 502.376,438.458 504.5,437.5C 503.311,436.571 501.978,436.238 500.5,436.5C 506.194,432.89 511.694,428.89 517,424.5C 523.18,421.161 529.347,417.994 535.5,415C 535.167,414.667 534.833,414.333 534.5,414C 538.438,412.298 542.104,410.131 545.5,407.5C 548.134,406.484 550.8,406.484 553.5,407.5C 553.5,406.5 553.5,405.5 553.5,404.5C 558.637,401.334 563.804,398.001 569,394.5C 569.414,394.957 569.914,395.291 570.5,395.5C 574.217,392.975 578.217,390.975 582.5,389.5C 583.442,389.608 584.275,389.941 585,390.5C 585.465,389.069 586.299,387.903 587.5,387C 590.589,386.082 593.589,384.915 596.5,383.5C 595.121,382.137 595.287,381.137 597,380.5C 597.95,381.022 598.784,381.689 599.5,382.5C 602.981,379.672 606.814,378.672 611,379.5C 614.333,377.5 617.667,375.5 621,373.5C 623.885,374.235 626.218,373.235 628,370.5C 630.851,371.244 633.517,371.244 636,370.5C 636.626,366.864 637.793,366.864 639.5,370.5C 642.602,366.754 645.602,366.754 648.5,370.5C 649.192,369.975 649.692,369.308 650,368.5C 650.5,369.667 651.333,370.5 652.5,371C 651.692,371.308 651.025,371.808 650.5,372.5C 650.716,376.068 650.716,379.568 650.5,383C 649.529,384.204 648.529,384.704 647.5,384.5C 647.709,385.086 648.043,385.586 648.5,386C 647.42,389.256 646.086,392.422 644.5,395.5C 645.682,397.467 645.015,398.8 642.5,399.5C 643.762,401.575 643.595,403.575 642,405.5C 640.535,404.631 639.369,405.131 638.5,407C 639.233,408.766 639.567,410.599 639.5,412.5C 641.258,415.374 640.592,417.541 637.5,419C 639.348,420.493 640.181,422.326 640,424.5C 637.503,428.015 634.669,431.182 631.5,434C 631.957,434.414 632.291,434.914 632.5,435.5C 631.244,438.179 629.244,440.845 626.5,443.5C 625.289,444.72 625.289,445.887 626.5,447C 625,447.833 623.833,449 623,450.5C 619.271,457.956 616.104,465.622 613.5,473.5C 612.167,473.5 610.833,473.5 609.5,473.5C 609.719,474.675 609.386,475.675 608.5,476.5C 604.829,481.5 600.829,486.167 596.5,490.5C 596.189,489.522 595.522,488.855 594.5,488.5C 593.281,489.646 591.948,490.646 590.5,491.5C 590.709,492.086 591.043,492.586 591.5,493C 588.664,495.007 585.997,497.174 583.5,499.5C 582.416,500.665 581.583,501.998 581,503.5C 580.586,503.043 580.086,502.709 579.5,502.5C 578.738,503.628 578.071,504.795 577.5,506C 573.777,507.873 570.444,510.04 567.5,512.5C 567.649,513.552 567.483,514.552 567,515.5C 558.686,522.9 549.852,529.733 540.5,536C 539.167,537 539.167,538 540.5,539C 539.258,539.311 538.258,538.811 537.5,537.5C 535.705,539.703 533.371,540.869 530.5,541C 531.458,542.147 531.125,543.147 529.5,544C 526.784,544.782 524.45,546.116 522.5,548C 522.905,548.945 523.572,549.612 524.5,550C 522.101,550.731 519.935,551.898 518,553.5C 517.275,551.842 516.108,551.342 514.5,552C 509.166,554.835 504.166,558.169 499.5,562C 496.666,562.045 494.166,562.879 492,564.5C 491.586,564.043 491.086,563.709 490.5,563.5C 486.106,566.736 481.606,567.736 477,566.5C 476.5,567.667 475.667,568.5 474.5,569C 472.899,569.273 471.399,569.773 470,570.5C 469.667,570.167 469.333,569.833 469,569.5C 467.333,571.628 465.166,572.961 462.5,573.5C 447.845,574.666 433.178,574.833 418.5,574C 412.36,571.672 406.027,570.172 399.5,569.5C 398.331,567.726 397.331,565.892 396.5,564C 395.939,562.434 396.606,561.101 398.5,560C 393.411,559.301 391.911,556.801 394,552.5C 395.026,555.693 397.192,557.026 400.5,556.5C 401.295,552.406 399.962,549.239 396.5,547C 397.587,543.788 399.587,541.455 402.5,540C 399.833,540 397.167,540 394.5,540C 394.181,537.67 393.348,535.17 392,532.5C 390.989,531.663 389.822,531.33 388.5,531.5C 388.498,535.541 387.165,536.208 384.5,533.5C 383.805,530.72 382.805,528.053 381.5,525.5C 384.215,523.449 384.048,521.783 381,520.5C 380.899,523.7 380.232,526.7 379,529.5C 378.316,528.216 378.483,527.049 379.5,526C 378.521,523.597 377.021,522.764 375,523.5C 373.587,521.586 371.753,520.253 369.5,519.5C 368.614,520.325 368.281,521.325 368.5,522.5C 367.325,522.719 366.325,522.386 365.5,521.5C 364.731,519.263 363.564,517.263 362,515.5C 360.853,516.458 359.853,516.125 359,514.5C 358.215,512.714 357.049,511.214 355.5,510C 356.275,507.71 355.442,505.876 353,504.5C 352.517,505.448 352.351,506.448 352.5,507.5C 351.448,507.649 350.448,507.483 349.5,507C 350.956,506.577 351.456,505.744 351,504.5C 350.259,505.641 349.425,505.641 348.5,504.5C 347.738,505.628 347.071,506.795 346.5,508C 345.833,508.667 345.167,508.667 344.5,508C 345.747,506.506 345.747,505.006 344.5,503.5C 342.415,502.459 340.748,500.959 339.5,499C 340.951,499.263 342.284,499.096 343.5,498.5C 342.91,497.201 341.91,496.368 340.5,496C 341.623,494.125 341.623,491.958 340.5,489.5C 339.5,489.5 338.5,489.5 337.5,489.5C 337.649,490.552 337.483,491.552 337,492.5C 336.727,490.899 336.227,489.399 335.5,488C 337.991,487.374 337.991,486.541 335.5,485.5C 337.838,483.951 337.338,482.951 334,482.5C 333.055,482.905 332.388,483.572 332,484.5C 330.921,482.606 329.587,482.273 328,483.5C 326.764,479.197 327.598,478.197 330.5,480.5C 331.386,479.675 331.719,478.675 331.5,477.5C 333.942,477.881 334.609,477.214 333.5,475.5C 334.025,474.808 334.692,474.308 335.5,474C 334.773,472.601 334.273,471.101 334,469.5C 332.984,470.634 332.317,470.301 332,468.5C 331.667,469.5 331.333,470.5 331,471.5C 330.161,468.86 330.661,466.527 332.5,464.5C 331.224,463.355 329.891,463.355 328.5,464.5C 327.429,462.675 328.096,461.508 330.5,461C 329.552,460.517 328.552,460.351 327.5,460.5C 327.137,458.089 328.137,456.589 330.5,456C 328.842,455.275 328.342,454.108 329,452.5C 329.333,453.167 329.667,453.833 330,454.5C 333.554,451.094 335.054,447.094 334.5,442.5C 333.738,443.628 333.071,444.795 332.5,446C 331.668,446.688 331.002,446.521 330.5,445.5C 331.074,443.941 331.74,442.441 332.5,441C 330.963,439.89 330.297,438.39 330.5,436.5C 330.336,433.813 330.503,431.146 331,428.5C 331.772,427.151 332.939,426.318 334.5,426C 334.167,425.667 333.833,425.333 333.5,425C 335.611,416.06 339.278,407.393 344.5,399C 344.043,398.586 343.709,398.086 343.5,397.5C 348.073,391.363 352.406,385.03 356.5,378.5C 354.989,376.162 355.323,375.496 357.5,376.5C 358.245,373.648 359.911,371.648 362.5,370.5C 364.679,370.16 366.512,369.16 368,367.5C 370.532,368.006 372.698,369.173 374.5,371C 371.812,371.856 370.146,373.69 369.5,376.5C 367.895,372.824 366.228,372.991 364.5,377C 364.905,377.945 365.572,378.612 366.5,379C 365.051,380.117 363.384,380.784 361.5,381C 361.845,383.73 362.011,386.563 362,389.5C 362.448,391.224 363.282,391.891 364.5,391.5C 363.758,392.287 362.925,392.953 362,393.5C 360.605,392.185 359.605,392.519 359,394.5C 357.482,394.943 356.315,394.276 355.5,392.5C 354.738,393.628 354.071,394.795 353.5,396C 354.966,396.635 356.3,397.469 357.5,398.5C 359.409,397.652 361.409,397.318 363.5,397.5C 363.25,400.505 364.583,402.338 367.5,403C 367.167,403.333 366.833,403.667 366.5,404C 367.5,404.667 368.5,404.667 369.5,404C 368.592,399.945 369.758,396.445 373,393.5C 373.374,394.416 373.874,395.25 374.5,396C 372.476,398.64 372.143,401.473 373.5,404.5C 373.351,400.933 375.018,398.1 378.5,396C 377.833,395.667 377.167,395.333 376.5,395C 378.156,393.171 380.156,391.837 382.5,391C 382.043,390.586 381.709,390.086 381.5,389.5C 382.976,387.58 383.976,385.413 384.5,383C 382.723,381.271 382.556,379.105 384,376.5C 385.667,375.167 387.333,375.167 389,376.5C 389.492,375.451 389.326,374.451 388.5,373.5C 389.729,372.719 391.062,372.219 392.5,372C 389.988,370.127 390.154,368.293 393,366.5C 395.694,367.628 398.194,368.295 400.5,368.5 Z"/></g>
<g><path style="opacity:1" fill="#1e9f8e" d="M 411.5,362.5 C 411.263,363.791 411.596,364.791 412.5,365.5C 392.925,385.424 380.258,409.091 374.5,436.5C 374.29,428.063 375.123,419.73 377,411.5C 379.21,408.217 381.71,404.55 384.5,400.5C 383.947,398.273 383.947,395.939 384.5,393.5C 388.903,394.107 390.236,392.44 388.5,388.5C 390.327,385.55 390.994,382.55 390.5,379.5C 391.851,377.981 393.351,376.648 395,375.5C 395.49,374.207 395.657,372.873 395.5,371.5C 398.285,372.084 399.952,371.084 400.5,368.5C 402.766,367.08 404.933,365.413 407,363.5C 408.558,364.345 409.558,363.679 410,361.5C 410.383,362.056 410.883,362.389 411.5,362.5 Z"/></g>
<g><path style="opacity:1" fill="#12a392" d="M 654.5,383.5 C 653.144,392.218 650.811,400.552 647.5,408.5C 646.778,408.918 646.278,409.584 646,410.5C 645.692,409.692 645.192,409.025 644.5,408.5C 643.234,410.404 641.567,411.737 639.5,412.5C 639.567,410.599 639.233,408.766 638.5,407C 639.369,405.131 640.535,404.631 642,405.5C 643.595,403.575 643.762,401.575 642.5,399.5C 645.015,398.8 645.682,397.467 644.5,395.5C 646.086,392.422 647.42,389.256 648.5,386C 648.043,385.586 647.709,385.086 647.5,384.5C 648.529,384.704 649.529,384.204 650.5,383C 650.716,379.568 650.716,376.068 650.5,372.5C 651.025,371.808 651.692,371.308 652.5,371C 651.333,370.5 650.5,369.667 650,368.5C 649.692,369.308 649.192,369.975 648.5,370.5C 645.602,366.754 642.602,366.754 639.5,370.5C 637.793,366.864 636.626,366.864 636,370.5C 633.517,371.244 630.851,371.244 628,370.5C 626.218,373.235 623.885,374.235 621,373.5C 617.667,375.5 614.333,377.5 611,379.5C 606.814,378.672 602.981,379.672 599.5,382.5C 598.784,381.689 597.95,381.022 597,380.5C 595.287,381.137 595.121,382.137 596.5,383.5C 593.589,384.915 590.589,386.082 587.5,387C 586.299,387.903 585.465,389.069 585,390.5C 584.275,389.941 583.442,389.608 582.5,389.5C 578.217,390.975 574.217,392.975 570.5,395.5C 569.914,395.291 569.414,394.957 569,394.5C 563.804,398.001 558.637,401.334 553.5,404.5C 553.5,405.5 553.5,406.5 553.5,407.5C 550.8,406.484 548.134,406.484 545.5,407.5C 542.104,410.131 538.438,412.298 534.5,414C 534.833,414.333 535.167,414.667 535.5,415C 529.347,417.994 523.18,421.161 517,424.5C 511.694,428.89 506.194,432.89 500.5,436.5C 498.474,438.018 496.307,439.352 494,440.5C 493.167,440.333 492.333,440.167 491.5,440C 497.927,436.066 497.261,435.066 489.5,437C 490.34,438.666 489.84,438.833 488,437.5C 486.89,439.037 485.39,439.703 483.5,439.5C 483.5,440.5 483.5,441.5 483.5,442.5C 481.784,442.629 480.117,442.962 478.5,443.5C 480.294,441.203 482.294,439.037 484.5,437C 505.62,421.363 527.62,407.196 550.5,394.5C 558.358,391.07 566.024,387.403 573.5,383.5C 593.932,374.578 614.932,367.245 636.5,361.5C 642.223,361.356 647.89,360.689 653.5,359.5C 654.833,359.833 656.167,360.167 657.5,360.5C 656.665,368.176 655.665,375.842 654.5,383.5 Z"/></g>
<g><path style="opacity:1" fill="#24917e" d="M 361.5,358.5 C 361.414,359.496 361.748,360.329 362.5,361C 356.858,365.318 352.692,370.818 350,377.5C 345.789,383.3 341.789,389.3 338,395.5C 335.61,401.862 333.277,408.196 331,414.5C 329.897,417.253 328.064,419.253 325.5,420.5C 332.905,397.005 344.905,376.338 361.5,358.5 Z"/></g>
<g><path style="opacity:1" fill="#dbf5f8" d="M 573.5,383.5 C 566.024,387.403 558.358,391.07 550.5,394.5C 550.369,393.624 550.702,392.957 551.5,392.5C 556.5,390 561.5,387.5 566.5,385C 568.74,384.023 571.073,383.523 573.5,383.5 Z"/></g>
<g><path style="opacity:1" fill="#0da28f" d="M 427.5,309.5 C 430.738,310.395 433.905,310.395 437,309.5C 438.039,310.71 439.206,311.71 440.5,312.5C 436.566,314.264 432.566,315.93 428.5,317.5C 427.723,319.539 426.557,320.205 425,319.5C 417.799,324.245 410.632,329.079 403.5,334C 399.403,336.798 395.069,338.964 390.5,340.5C 386.091,346.406 380.757,351.573 374.5,356C 372.833,356.333 371.167,356.667 369.5,357C 370.448,357.483 371.448,357.649 372.5,357.5C 372.719,358.675 372.386,359.675 371.5,360.5C 368.567,364.077 365.567,367.411 362.5,370.5C 359.911,371.648 358.245,373.648 357.5,376.5C 355.323,375.496 354.989,376.162 356.5,378.5C 352.406,385.03 348.073,391.363 343.5,397.5C 343.709,398.086 344.043,398.586 344.5,399C 339.278,407.393 335.611,416.06 333.5,425C 333.833,425.333 334.167,425.667 334.5,426C 332.939,426.318 331.772,427.151 331,428.5C 330.503,431.146 330.336,433.813 330.5,436.5C 329.732,437.263 329.232,438.263 329,439.5C 328.667,438.833 328.333,438.167 328,437.5C 327.174,440.793 326.674,444.126 326.5,447.5C 325.178,447.33 324.011,447.663 323,448.5C 320.684,456.24 319.85,464.24 320.5,472.5C 320.762,473.978 320.429,475.311 319.5,476.5C 318.503,469.532 318.17,462.532 318.5,455.5C 319.413,443.521 321.746,431.855 325.5,420.5C 328.064,419.253 329.897,417.253 331,414.5C 333.277,408.196 335.61,401.862 338,395.5C 341.789,389.3 345.789,383.3 350,377.5C 352.692,370.818 356.858,365.318 362.5,361C 361.748,360.329 361.414,359.496 361.5,358.5C 374.174,344.322 388.507,332.155 404.5,322C 411.901,317.3 419.568,313.134 427.5,309.5 Z"/></g>
<g><path style="opacity:1" fill="#aee7e7" d="M 553.5,438.5 C 553.842,437.662 554.508,437.328 555.5,437.5C 558.247,437.187 560.914,437.52 563.5,438.5C 563.376,439.107 563.043,439.44 562.5,439.5C 559.713,438.523 556.713,438.19 553.5,438.5 Z"/></g>
<g><path style="opacity:1" fill="#0ea98f" d="M 555.5,437.5 C 554.508,437.328 553.842,437.662 553.5,438.5C 549.812,438.781 546.145,439.281 542.5,440C 530.441,443.077 518.441,446.244 506.5,449.5C 505.07,449.579 503.736,449.246 502.5,448.5C 501.205,449.098 499.872,449.598 498.5,450C 498.833,450.333 499.167,450.667 499.5,451C 495.901,451.957 492.568,451.457 489.5,449.5C 490.089,451.373 489.422,453.04 487.5,454.5C 483.5,454.828 480.5,456.661 478.5,460C 475.285,461.774 471.952,463.274 468.5,464.5C 465.812,463.718 464.812,462.218 465.5,460C 464.044,459.577 463.544,458.744 464,457.5C 467.939,452.361 472.772,448.695 478.5,446.5C 478.5,445.5 478.5,444.5 478.5,443.5C 480.117,442.962 481.784,442.629 483.5,442.5C 483.5,441.5 483.5,440.5 483.5,439.5C 485.39,439.703 486.89,439.037 488,437.5C 489.84,438.833 490.34,438.666 489.5,437C 497.261,435.066 497.927,436.066 491.5,440C 492.333,440.167 493.167,440.333 494,440.5C 496.307,439.352 498.474,438.018 500.5,436.5C 501.978,436.238 503.311,436.571 504.5,437.5C 502.376,438.458 500.376,439.625 498.5,441C 500.392,441.973 502.392,442.64 504.5,443C 504.167,443.333 503.833,443.667 503.5,444C 506.117,447.729 509.117,447.562 512.5,443.5C 513.506,443.938 513.506,444.604 512.5,445.5C 513.167,445.833 513.833,446.167 514.5,446.5C 517.667,444.833 520.833,443.167 524,441.5C 526.089,441.745 528.089,441.745 530,441.5C 533.368,438.813 537.035,437.813 541,438.5C 547.638,437.227 554.305,435.893 561,434.5C 562.167,434.833 563.333,435.167 564.5,435.5C 561.358,436.167 558.358,436.834 555.5,437.5 Z"/></g>
<g><path style="opacity:1" fill="#1e9c8b" d="M 647.5,408.5 C 633.796,451.827 609.796,488.16 575.5,517.5C 575.739,515.533 575.406,513.699 574.5,512C 576.107,512.019 577.774,512.185 579.5,512.5C 579.369,509.671 580.369,508.338 582.5,508.5C 581.833,507.833 581.167,507.167 580.5,506.5C 581.963,506.368 583.463,506.035 585,505.5C 586.098,504.616 586.598,503.616 586.5,502.5C 587.086,502.709 587.586,503.043 588,503.5C 588.667,502.167 589.333,500.833 590,499.5C 590.414,499.957 590.914,500.291 591.5,500.5C 592.711,499.726 592.711,498.893 591.5,498C 593.904,497.492 594.571,496.325 593.5,494.5C 595.288,493.717 596.288,492.384 596.5,490.5C 600.829,486.167 604.829,481.5 608.5,476.5C 609.386,475.675 609.719,474.675 609.5,473.5C 610.833,473.5 612.167,473.5 613.5,473.5C 616.104,465.622 619.271,457.956 623,450.5C 623.833,449 625,447.833 626.5,447C 625.289,445.887 625.289,444.72 626.5,443.5C 629.244,440.845 631.244,438.179 632.5,435.5C 632.291,434.914 631.957,434.414 631.5,434C 634.669,431.182 637.503,428.015 640,424.5C 640.181,422.326 639.348,420.493 637.5,419C 640.592,417.541 641.258,415.374 639.5,412.5C 641.567,411.737 643.234,410.404 644.5,408.5C 645.192,409.025 645.692,409.692 646,410.5C 646.278,409.584 646.778,408.918 647.5,408.5 Z"/></g>
<g><path style="opacity:1" fill="#259e8b" d="M 478.5,443.5 C 478.5,444.5 478.5,445.5 478.5,446.5C 472.772,448.695 467.939,452.361 464,457.5C 463.544,458.744 464.044,459.577 465.5,460C 464.812,462.218 465.812,463.718 468.5,464.5C 471.952,463.274 475.285,461.774 478.5,460C 480.5,456.661 483.5,454.828 487.5,454.5C 489.422,453.04 490.089,451.373 489.5,449.5C 492.568,451.457 495.901,451.957 499.5,451C 499.167,450.667 498.833,450.333 498.5,450C 499.872,449.598 501.205,449.098 502.5,448.5C 503.736,449.246 505.07,449.579 506.5,449.5C 486.272,457.446 466.605,466.779 447.5,477.5C 443.814,477.87 442.814,476.537 444.5,473.5C 453.022,465.144 461.688,456.977 470.5,449C 473.065,446.92 475.732,445.087 478.5,443.5 Z"/></g>
<g><path style="opacity:1" fill="#40928a" d="M 444.5,473.5 C 442.814,476.537 443.814,477.87 447.5,477.5C 442.466,481.455 436.799,483.955 430.5,485C 435.06,480.931 439.726,477.098 444.5,473.5 Z"/></g>
<g><path style="opacity:1" fill="#13a192" d="M 464.5,509.5 C 468.217,508.32 471.884,506.987 475.5,505.5C 484.746,502.541 493.412,498.541 501.5,493.5C 524.199,480.143 543.866,463.143 560.5,442.5C 563.883,441.246 564.383,442.246 562,445.5C 559.331,447.34 556.831,449.34 554.5,451.5C 554.887,452.72 555.72,453.387 557,453.5C 558.641,451.955 559.807,452.289 560.5,454.5C 557.812,459.619 553.979,463.619 549,466.5C 544.085,471.719 539.252,477.053 534.5,482.5C 526.1,487.028 518.433,492.528 511.5,499C 502.182,504.246 492.515,508.746 482.5,512.5C 476.601,510.85 470.601,509.85 464.5,509.5 Z"/></g>
<g><path style="opacity:1" fill="#ddf9fb" d="M 501.5,493.5 C 493.412,498.541 484.746,502.541 475.5,505.5C 479.513,502.986 483.847,500.653 488.5,498.5C 489.251,497.624 489.751,496.624 490,495.5C 490.725,496.059 491.558,496.392 492.5,496.5C 495.356,494.956 498.356,493.956 501.5,493.5 Z"/></g>
<g><path style="opacity:1" fill="#08a699" d="M 330.5,436.5 C 330.297,438.39 330.963,439.89 332.5,441C 331.74,442.441 331.074,443.941 330.5,445.5C 331.002,446.521 331.668,446.688 332.5,446C 333.071,444.795 333.738,443.628 334.5,442.5C 335.054,447.094 333.554,451.094 330,454.5C 329.667,453.833 329.333,453.167 329,452.5C 328.342,454.108 328.842,455.275 330.5,456C 328.137,456.589 327.137,458.089 327.5,460.5C 328.552,460.351 329.552,460.517 330.5,461C 328.096,461.508 327.429,462.675 328.5,464.5C 329.891,463.355 331.224,463.355 332.5,464.5C 330.661,466.527 330.161,468.86 331,471.5C 331.333,470.5 331.667,469.5 332,468.5C 332.317,470.301 332.984,470.634 334,469.5C 334.273,471.101 334.773,472.601 335.5,474C 334.692,474.308 334.025,474.808 333.5,475.5C 334.609,477.214 333.942,477.881 331.5,477.5C 331.719,478.675 331.386,479.675 330.5,480.5C 327.598,478.197 326.764,479.197 328,483.5C 329.587,482.273 330.921,482.606 332,484.5C 332.388,483.572 333.055,482.905 334,482.5C 337.338,482.951 337.838,483.951 335.5,485.5C 337.991,486.541 337.991,487.374 335.5,488C 336.227,489.399 336.727,490.899 337,492.5C 337.483,491.552 337.649,490.552 337.5,489.5C 338.5,489.5 339.5,489.5 340.5,489.5C 341.623,491.958 341.623,494.125 340.5,496C 341.91,496.368 342.91,497.201 343.5,498.5C 342.284,499.096 340.951,499.263 339.5,499C 340.748,500.959 342.415,502.459 344.5,503.5C 345.747,505.006 345.747,506.506 344.5,508C 345.167,508.667 345.833,508.667 346.5,508C 347.071,506.795 347.738,505.628 348.5,504.5C 349.425,505.641 350.259,505.641 351,504.5C 351.456,505.744 350.956,506.577 349.5,507C 350.448,507.483 351.448,507.649 352.5,507.5C 352.351,506.448 352.517,505.448 353,504.5C 355.442,505.876 356.275,507.71 355.5,510C 357.049,511.214 358.215,512.714 359,514.5C 359.853,516.125 360.853,516.458 362,515.5C 363.564,517.263 364.731,519.263 365.5,521.5C 366.325,522.386 367.325,522.719 368.5,522.5C 368.281,521.325 368.614,520.325 369.5,519.5C 371.753,520.253 373.587,521.586 375,523.5C 377.021,522.764 378.521,523.597 379.5,526C 378.483,527.049 378.316,528.216 379,529.5C 380.232,526.7 380.899,523.7 381,520.5C 384.048,521.783 384.215,523.449 381.5,525.5C 382.805,528.053 383.805,530.72 384.5,533.5C 387.165,536.208 388.498,535.541 388.5,531.5C 389.822,531.33 390.989,531.663 392,532.5C 393.348,535.17 394.181,537.67 394.5,540C 397.167,540 399.833,540 402.5,540C 399.587,541.455 397.587,543.788 396.5,547C 399.962,549.239 401.295,552.406 400.5,556.5C 397.192,557.026 395.026,555.693 394,552.5C 391.911,556.801 393.411,559.301 398.5,560C 396.606,561.101 395.939,562.434 396.5,564C 397.331,565.892 398.331,567.726 399.5,569.5C 397.833,569.5 396.167,569.5 394.5,569.5C 390.905,567.784 387.239,565.951 383.5,564C 381.26,563.023 378.927,562.523 376.5,562.5C 376.167,558.833 374.167,556.833 370.5,556.5C 371.335,555.057 372.668,554.057 374.5,553.5C 373.221,551.854 371.555,550.687 369.5,550C 370.654,549.086 370.487,548.253 369,547.5C 367.235,548.239 365.235,548.239 363,547.5C 362.333,548.167 361.667,548.833 361,549.5C 359.108,548.383 358.275,546.716 358.5,544.5C 357.325,544.719 356.325,544.386 355.5,543.5C 356.605,542.108 357.939,540.941 359.5,540C 358.109,538.98 356.609,538.147 355,537.5C 354.517,536.552 354.351,535.552 354.5,534.5C 353.167,534.5 351.833,534.5 350.5,534.5C 351.401,530.759 350.068,528.759 346.5,528.5C 346.509,526.692 346.009,525.025 345,523.5C 344.667,523.833 344.333,524.167 344,524.5C 339.332,518.8 335.999,512.467 334,505.5C 331.111,503.292 329.778,500.292 330,496.5C 329.426,494.508 328.259,493.008 326.5,492C 326.833,491.667 327.167,491.333 327.5,491C 325.578,489.54 324.911,487.873 325.5,486C 322.602,486.555 321.269,485.055 321.5,481.5C 322.5,481.5 323.5,481.5 324.5,481.5C 323.423,478.474 323.423,475.474 324.5,472.5C 323.878,469.63 323.211,466.796 322.5,464C 322.944,462.467 323.277,460.967 323.5,459.5C 323.192,458.692 322.692,458.025 322,457.5C 321.207,461.423 321.374,465.256 322.5,469C 321.915,470.302 321.249,471.469 320.5,472.5C 319.85,464.24 320.684,456.24 323,448.5C 324.011,447.663 325.178,447.33 326.5,447.5C 326.674,444.126 327.174,440.793 328,437.5C 328.333,438.167 328.667,438.833 329,439.5C 329.232,438.263 329.732,437.263 330.5,436.5 Z"/></g>
<g><path style="opacity:1" fill="#e7f5fb" d="M 400.5,503.5 C 402.78,504.64 405.114,505.807 407.5,507C 430.308,510.768 452.975,510.268 475.5,505.5C 471.884,506.987 468.217,508.32 464.5,509.5C 447.143,512.073 429.809,512.073 412.5,509.5C 407.653,509.076 403.653,507.076 400.5,503.5 Z"/></g>
<g><path style="opacity:1" fill="#10a799" d="M 412.5,509.5 C 429.809,512.073 447.143,512.073 464.5,509.5C 466.246,510.218 466.912,511.218 466.5,512.5C 468.967,511.126 470.801,511.793 472,514.5C 472.333,514.167 472.667,513.833 473,513.5C 476.841,514.417 477.174,515.75 474,517.5C 472.093,517.579 470.093,517.246 468,516.5C 465.697,520.523 463.363,520.857 461,517.5C 460.667,518.167 460.333,518.833 460,519.5C 458.32,518.397 456.82,518.73 455.5,520.5C 451.381,519.135 447.381,519.468 443.5,521.5C 445.501,523.662 446.834,526.162 447.5,529C 446.008,533.806 444.841,533.64 444,528.5C 443.56,530.076 442.727,531.41 441.5,532.5C 442.247,532.736 443.08,533.07 444,533.5C 444.659,537.857 443.325,541.524 440,544.5C 436.778,541.645 433.944,541.979 431.5,545.5C 428.062,543.388 424.728,541.888 421.5,541C 425.245,541.035 425.912,540.035 423.5,538C 421.236,537.764 419.069,537.264 417,536.5C 416.544,537.744 417.044,538.577 418.5,539C 417.151,539.772 416.318,540.939 416,542.5C 414.348,539.045 412.515,535.711 410.5,532.5C 410.167,532.667 409.833,532.833 409.5,533C 410.357,533.689 411.023,534.522 411.5,535.5C 410.965,537.271 410.131,537.604 409,536.5C 408.798,538.256 408.298,539.922 407.5,541.5C 404.163,540.891 403.83,539.724 406.5,538C 402.469,535.794 402.636,535.294 407,536.5C 407.374,535.584 407.874,534.75 408.5,534C 405.701,533.561 404.701,532.228 405.5,530C 403.996,528.663 402.996,526.996 402.5,525C 404.256,524.798 405.922,524.298 407.5,523.5C 405.713,522.684 404.046,521.684 402.5,520.5C 401.646,521.522 400.646,522.355 399.5,523C 399.833,523.333 400.167,523.667 400.5,524C 399.552,524.483 398.552,524.649 397.5,524.5C 397.227,522.549 397.893,521.049 399.5,520C 398.5,519.667 397.5,519.333 396.5,519C 398.743,516.977 401.077,516.143 403.5,516.5C 400.579,514.443 397.912,512.777 395.5,511.5C 394.571,512.689 394.238,514.022 394.5,515.5C 390.743,515.714 390.076,514.714 392.5,512.5C 390.922,511.928 389.422,511.594 388,511.5C 387.51,510.207 387.343,508.873 387.5,507.5C 386.5,507.5 385.5,507.5 384.5,507.5C 384.674,505.139 385.007,502.806 385.5,500.5C 386.978,500.238 388.311,500.571 389.5,501.5C 389.291,502.086 388.957,502.586 388.5,503C 391.242,504.07 393.742,505.57 396,507.5C 396.414,507.043 396.914,506.709 397.5,506.5C 399.403,507.947 401.07,509.614 402.5,511.5C 405.887,512.964 409.22,513.298 412.5,512.5C 412.5,511.5 412.5,510.5 412.5,509.5 Z"/></g>
<g><path style="opacity:1" fill="#1da18e" d="M 596.5,490.5 C 596.288,492.384 595.288,493.717 593.5,494.5C 594.571,496.325 593.904,497.492 591.5,498C 592.711,498.893 592.711,499.726 591.5,500.5C 590.914,500.291 590.414,499.957 590,499.5C 589.333,500.833 588.667,502.167 588,503.5C 587.586,503.043 587.086,502.709 586.5,502.5C 586.598,503.616 586.098,504.616 585,505.5C 583.463,506.035 581.963,506.368 580.5,506.5C 581.167,507.167 581.833,507.833 582.5,508.5C 580.369,508.338 579.369,509.671 579.5,512.5C 577.774,512.185 576.107,512.019 574.5,512C 575.406,513.699 575.739,515.533 575.5,517.5C 550.861,541.332 522.194,558.832 489.5,570C 464.502,576.584 439.169,578.25 413.5,575C 406.868,573.718 400.535,571.885 394.5,569.5C 396.167,569.5 397.833,569.5 399.5,569.5C 406.027,570.172 412.36,571.672 418.5,574C 433.178,574.833 447.845,574.666 462.5,573.5C 465.166,572.961 467.333,571.628 469,569.5C 469.333,569.833 469.667,570.167 470,570.5C 471.399,569.773 472.899,569.273 474.5,569C 475.667,568.5 476.5,567.667 477,566.5C 481.606,567.736 486.106,566.736 490.5,563.5C 491.086,563.709 491.586,564.043 492,564.5C 494.166,562.879 496.666,562.045 499.5,562C 504.166,558.169 509.166,554.835 514.5,552C 516.108,551.342 517.275,551.842 518,553.5C 519.935,551.898 522.101,550.731 524.5,550C 523.572,549.612 522.905,548.945 522.5,548C 524.45,546.116 526.784,544.782 529.5,544C 531.125,543.147 531.458,542.147 530.5,541C 533.371,540.869 535.705,539.703 537.5,537.5C 538.258,538.811 539.258,539.311 540.5,539C 539.167,538 539.167,537 540.5,536C 549.852,529.733 558.686,522.9 567,515.5C 567.483,514.552 567.649,513.552 567.5,512.5C 570.444,510.04 573.777,507.873 577.5,506C 578.071,504.795 578.738,503.628 579.5,502.5C 580.086,502.709 580.586,503.043 581,503.5C 581.583,501.998 582.416,500.665 583.5,499.5C 585.997,497.174 588.664,495.007 591.5,493C 591.043,492.586 590.709,492.086 590.5,491.5C 591.948,490.646 593.281,489.646 594.5,488.5C 595.522,488.855 596.189,489.522 596.5,490.5 Z"/></g>
<g><path style="opacity:1" fill="#119d93" d="M 318.5,455.5 C 318.17,462.532 318.503,469.532 319.5,476.5C 320.429,475.311 320.762,473.978 320.5,472.5C 321.249,471.469 321.915,470.302 322.5,469C 321.374,465.256 321.207,461.423 322,457.5C 322.692,458.025 323.192,458.692 323.5,459.5C 323.277,460.967 322.944,462.467 322.5,464C 323.211,466.796 323.878,469.63 324.5,472.5C 323.423,475.474 323.423,478.474 324.5,481.5C 323.5,481.5 322.5,481.5 321.5,481.5C 321.269,485.055 322.602,486.555 325.5,486C 324.911,487.873 325.578,489.54 327.5,491C 327.167,491.333 326.833,491.667 326.5,492C 328.259,493.008 329.426,494.508 330,496.5C 329.778,500.292 331.111,503.292 334,505.5C 335.999,512.467 339.332,518.8 344,524.5C 344.333,524.167 344.667,523.833 345,523.5C 346.009,525.025 346.509,526.692 346.5,528.5C 350.068,528.759 351.401,530.759 350.5,534.5C 351.833,534.5 353.167,534.5 354.5,534.5C 354.351,535.552 354.517,536.552 355,537.5C 356.609,538.147 358.109,538.98 359.5,540C 357.939,540.941 356.605,542.108 355.5,543.5C 356.325,544.386 357.325,544.719 358.5,544.5C 358.275,546.716 359.108,548.383 361,549.5C 361.667,548.833 362.333,548.167 363,547.5C 365.235,548.239 367.235,548.239 369,547.5C 370.487,548.253 370.654,549.086 369.5,550C 371.555,550.687 373.221,551.854 374.5,553.5C 372.668,554.057 371.335,555.057 370.5,556.5C 370.565,556.938 370.399,557.272 370,557.5C 368.902,556.033 367.402,555.199 365.5,555C 364.663,553.989 364.33,552.822 364.5,551.5C 361.436,551.856 358.769,551.023 356.5,549C 355.469,545.961 353.635,543.461 351,541.5C 350.316,540.216 350.483,539.049 351.5,538C 350.216,537.316 349.049,537.483 348,538.5C 344.187,534.172 340.021,530.505 335.5,527.5C 328.551,518.263 323.718,507.93 321,496.5C 317.642,482.825 316.808,469.159 318.5,455.5 Z"/></g>
<g><path style="opacity:1" fill="#319087" d="M 335.5,527.5 C 340.021,530.505 344.187,534.172 348,538.5C 349.049,537.483 350.216,537.316 351.5,538C 350.483,539.049 350.316,540.216 351,541.5C 353.635,543.461 355.469,545.961 356.5,549C 358.769,551.023 361.436,551.856 364.5,551.5C 364.33,552.822 364.663,553.989 365.5,555C 367.402,555.199 368.902,556.033 370,557.5C 370.399,557.272 370.565,556.938 370.5,556.5C 374.167,556.833 376.167,558.833 376.5,562.5C 359.396,554.719 345.729,543.053 335.5,527.5 Z"/></g>
<g><path style="opacity:1" fill="#48938d" d="M 376.5,562.5 C 378.927,562.523 381.26,563.023 383.5,564C 387.239,565.951 390.905,567.784 394.5,569.5C 387.981,568.33 381.981,565.997 376.5,562.5 Z"/></g>
</svg>
